<svg id="Camada_3" data-name="Camada 3" xmlns="http://www.w3.org/2000/svg" viewBox="0 0 238.23 264.25"><defs><style>.cls-1,.cls-2{fill:none;stroke:#fff;stroke-miterlimit:10;stroke-width:12.25px;}.cls-2{stroke-linecap:round;}</style></defs><path class="cls-1" d="M964.7,583.23l21.93-.53a15.38,15.38,0,0,0,14.81-17.58c-7.1-50.44-45.88-87.84-88.5-90.48-36.7-2.28-70.34,22.5-87.34,50.37a105.21,105.21,0,0,0-14.39,41.42,16.58,16.58,0,0,0,16.48,18.65h65.84" transform="translate(-788.52 -468.37)"/><circle class="cls-1" cx="906.01" cy="567.98" r="61.46" transform="translate(-924.78 338.64) rotate(-45)"/><path class="cls-1" d="M813.61,553.77l32.53.27" transform="translate(-788.52 -468.37)"/><path class="cls-1" d="M998.74,551.73h-33" transform="translate(-788.52 -468.37)"/><path class="cls-2" d="M1020.62,725.1c-9.75-54.49-56.7-94.65-111-95.77C855,628.21,806.39,667,794.74,721.13a4.42,4.42,0,0,0,4.31,5.36h221.57" transform="translate(-788.52 -468.37)"/></svg>